<svg width="1440" height="589" viewBox="0 0 1440 589" fill="none" xmlns="http://www.w3.org/2000/svg">
<path d="M0.423207 70.9166C-6.58494 5.03792 75.2099 28.9828 115.057 70.9166C124.067 80.3991 149.597 155.76 209.166 210.659C268.735 265.558 340.318 297.499 365.348 270.05C390.377 242.6 399.387 210.659 479.981 210.659C560.575 210.659 705.243 162.747 861.424 116.832C1017.61 70.9166 1033.12 139.79 1070.17 144.281C1099.8 147.875 1162.27 115.168 1189.81 98.366C1233.36 71.7878 1319.16 83.5933 1329.97 98.366C1343.48 116.832 1389.04 277.536 1375.52 318.461C1362.01 359.385 1311.45 482.658 1205.82 496.632C1100.2 510.606 124.568 487.15 99.0379 480.662C78.6141 475.471 24.7849 389.995 0.423207 347.906V70.9166Z" fill="url(#paint0_linear_0_1)"/>
<path d="M0 133.523C91 135.523 89 132.023 136 176.523C183 221.023 147.5 249.523 252 292.023C356.5 334.523 358.757 417.417 465.5 356.523C540 314.023 540.5 312.631 697 274.523C908.5 223.023 908 194.023 999.5 212.023C1091 230.023 1049 301.023 1175.5 192.023C1302 83.0233 1306.5 34.0233 1375.5 25.0233C1444.5 16.0233 1442 -26.4767 1442 25.0233V589.523H0V133.523Z" fill="url(#paint1_linear_0_1)"/>
<path opacity="0.55" d="M0.5 355.5C54.5 325 54 325 75.5 321.5C149.903 309.388 118.5 360 194 404.5C269.5 449 312 479.5 406.5 465.5C501 451.5 638.5 404.5 681 404.5C723.5 404.5 827.5 465.5 898.5 465.5C969.5 465.5 1019.5 432.5 1099.5 418.5C1179.5 404.5 1309.5 340.5 1364 418.5C1407.6 480.9 1431 502.667 1440.5 509V589.5L0.5 587V355.5Z" fill="url(#paint2_linear_0_1)"/>
<defs>
<linearGradient id="paint0_linear_0_1" x1="689" y1="30" x2="689" y2="501" gradientUnits="userSpaceOnUse">
<stop stop-color="#7D49C4"/>
<stop offset="1" stop-color="#4B2C76"/>
</linearGradient>
<linearGradient id="paint1_linear_0_1" x1="721.006" y1="1.54953e-06" x2="721.006" y2="589.523" gradientUnits="userSpaceOnUse">
<stop stop-color="#9F83DA"/>
<stop offset="1" stop-color="#8C7CAF"/>
</linearGradient>
<linearGradient id="paint2_linear_0_1" x1="0.5" y1="454.589" x2="1" y2="772" gradientUnits="userSpaceOnUse">
<stop stop-color="#C1A9D9"/>
<stop offset="1" stop-color="#3A2C48"/>
</linearGradient>
</defs>
</svg>
